<mxfile host="app.diagrams.net" modified="2023-07-03T18:53:57.391Z" agent="Mozilla/5.0 (X11; Ubuntu; Linux x86_64; rv:109.0) Gecko/20100101 Firefox/114.0" etag="kEfHjOnMRFRGLPpR2dUP" version="21.5.2" type="device">
  <diagram name="Page-1" id="WrtmoV9ny_IJdTC_MbwY">
    <mxGraphModel dx="899" dy="519" grid="1" gridSize="10" guides="1" tooltips="1" connect="1" arrows="1" fold="1" page="1" pageScale="1" pageWidth="850" pageHeight="1100" math="0" shadow="0">
      <root>
        <mxCell id="0" />
        <mxCell id="1" parent="0" />
        <mxCell id="uwwBJBZ8vMVv8G7QtI5B-1" value="&lt;font style=&quot;font-size: 16px;&quot; face=&quot;Courier New&quot;&gt;CONV&lt;br&gt;&lt;/font&gt;" style="rounded=1;whiteSpace=wrap;html=1;opacity=60;fillColor=#1ba1e2;fontColor=#ffffff;strokeColor=#006EAF;" parent="1" vertex="1">
          <mxGeometry x="30" y="80" width="120" height="30" as="geometry" />
        </mxCell>
        <mxCell id="uwwBJBZ8vMVv8G7QtI5B-13" value="" style="endArrow=classic;html=1;rounded=0;fillColor=#1ba1e2;strokeColor=#006EAF;strokeWidth=3;" parent="1" edge="1">
          <mxGeometry width="50" height="50" relative="1" as="geometry">
            <mxPoint x="90" y="50" as="sourcePoint" />
            <mxPoint x="89.5" y="80" as="targetPoint" />
          </mxGeometry>
        </mxCell>
        <mxCell id="uwwBJBZ8vMVv8G7QtI5B-44" value="&lt;font style=&quot;font-size: 16px;&quot; face=&quot;Courier New&quot;&gt;BN&lt;br&gt;&lt;/font&gt;" style="rounded=1;whiteSpace=wrap;html=1;opacity=60;fillColor=#1ba1e2;fontColor=#ffffff;strokeColor=#006EAF;" parent="1" vertex="1">
          <mxGeometry x="30" y="140" width="120" height="30" as="geometry" />
        </mxCell>
        <mxCell id="uwwBJBZ8vMVv8G7QtI5B-45" value="" style="endArrow=classic;html=1;rounded=0;fillColor=#1ba1e2;strokeColor=#006EAF;strokeWidth=3;" parent="1" edge="1">
          <mxGeometry width="50" height="50" relative="1" as="geometry">
            <mxPoint x="90" y="110" as="sourcePoint" />
            <mxPoint x="89.5" y="140" as="targetPoint" />
          </mxGeometry>
        </mxCell>
        <mxCell id="uwwBJBZ8vMVv8G7QtI5B-46" value="&lt;font style=&quot;font-size: 16px;&quot; face=&quot;Courier New&quot;&gt;ReLU&lt;br&gt;&lt;/font&gt;" style="rounded=1;whiteSpace=wrap;html=1;opacity=60;fillColor=#1ba1e2;fontColor=#ffffff;strokeColor=#006EAF;" parent="1" vertex="1">
          <mxGeometry x="30" y="200" width="120" height="30" as="geometry" />
        </mxCell>
        <mxCell id="uwwBJBZ8vMVv8G7QtI5B-47" value="" style="endArrow=classic;html=1;rounded=0;fillColor=#1ba1e2;strokeColor=#006EAF;strokeWidth=3;" parent="1" edge="1">
          <mxGeometry width="50" height="50" relative="1" as="geometry">
            <mxPoint x="90" y="170" as="sourcePoint" />
            <mxPoint x="89.5" y="200" as="targetPoint" />
          </mxGeometry>
        </mxCell>
        <mxCell id="uwwBJBZ8vMVv8G7QtI5B-48" value="&lt;font style=&quot;font-size: 16px;&quot; face=&quot;Courier New&quot;&gt;CONV&lt;br&gt;&lt;/font&gt;" style="rounded=1;whiteSpace=wrap;html=1;opacity=60;fillColor=#1ba1e2;fontColor=#ffffff;strokeColor=#006EAF;" parent="1" vertex="1">
          <mxGeometry x="30" y="260" width="120" height="30" as="geometry" />
        </mxCell>
        <mxCell id="uwwBJBZ8vMVv8G7QtI5B-49" value="" style="endArrow=classic;html=1;rounded=0;fillColor=#1ba1e2;strokeColor=#006EAF;strokeWidth=3;" parent="1" edge="1">
          <mxGeometry width="50" height="50" relative="1" as="geometry">
            <mxPoint x="90" y="230" as="sourcePoint" />
            <mxPoint x="89.5" y="260" as="targetPoint" />
          </mxGeometry>
        </mxCell>
        <mxCell id="uwwBJBZ8vMVv8G7QtI5B-50" value="&lt;font style=&quot;font-size: 16px;&quot; face=&quot;Courier New&quot;&gt;BN&lt;br&gt;&lt;/font&gt;" style="rounded=1;whiteSpace=wrap;html=1;opacity=60;fillColor=#1ba1e2;fontColor=#ffffff;strokeColor=#006EAF;" parent="1" vertex="1">
          <mxGeometry x="30" y="320" width="120" height="30" as="geometry" />
        </mxCell>
        <mxCell id="uwwBJBZ8vMVv8G7QtI5B-51" value="" style="endArrow=classic;html=1;rounded=0;fillColor=#1ba1e2;strokeColor=#006EAF;strokeWidth=3;" parent="1" edge="1">
          <mxGeometry width="50" height="50" relative="1" as="geometry">
            <mxPoint x="90" y="290" as="sourcePoint" />
            <mxPoint x="89.5" y="320" as="targetPoint" />
          </mxGeometry>
        </mxCell>
        <mxCell id="uwwBJBZ8vMVv8G7QtI5B-53" value="" style="endArrow=classic;html=1;rounded=0;fillColor=#1ba1e2;strokeColor=#006EAF;strokeWidth=3;" parent="1" edge="1">
          <mxGeometry width="50" height="50" relative="1" as="geometry">
            <mxPoint x="90" y="350" as="sourcePoint" />
            <mxPoint x="89.5" y="380" as="targetPoint" />
          </mxGeometry>
        </mxCell>
        <mxCell id="uwwBJBZ8vMVv8G7QtI5B-54" value="&lt;font style=&quot;font-size: 16px;&quot; face=&quot;Courier New&quot;&gt;x&lt;/font&gt;" style="text;html=1;strokeColor=none;fillColor=none;align=center;verticalAlign=middle;whiteSpace=wrap;rounded=0;fontColor=#FFFFFF;" parent="1" vertex="1">
          <mxGeometry x="60" y="20" width="60" height="30" as="geometry" />
        </mxCell>
        <mxCell id="uwwBJBZ8vMVv8G7QtI5B-56" value="&lt;font style=&quot;font-size: 16px;&quot; face=&quot;Courier New&quot;&gt;+&lt;/font&gt;" style="ellipse;whiteSpace=wrap;html=1;aspect=fixed;fillColor=#1ba1e2;fontColor=#ffffff;strokeColor=#006EAF;opacity=60;" parent="1" vertex="1">
          <mxGeometry x="80" y="380" width="20" height="20" as="geometry" />
        </mxCell>
        <mxCell id="uwwBJBZ8vMVv8G7QtI5B-59" value="&lt;font style=&quot;font-size: 16px;&quot; face=&quot;Courier New&quot;&gt;ReLU&lt;br&gt;&lt;/font&gt;" style="rounded=1;whiteSpace=wrap;html=1;opacity=60;fillColor=#1ba1e2;fontColor=#ffffff;strokeColor=#006EAF;" parent="1" vertex="1">
          <mxGeometry x="30" y="430" width="120" height="30" as="geometry" />
        </mxCell>
        <mxCell id="uwwBJBZ8vMVv8G7QtI5B-60" value="" style="endArrow=classic;html=1;rounded=0;fillColor=#1ba1e2;strokeColor=#006EAF;strokeWidth=3;" parent="1" edge="1">
          <mxGeometry width="50" height="50" relative="1" as="geometry">
            <mxPoint x="90" y="400" as="sourcePoint" />
            <mxPoint x="89.5" y="430" as="targetPoint" />
          </mxGeometry>
        </mxCell>
        <mxCell id="uwwBJBZ8vMVv8G7QtI5B-61" value="" style="endArrow=classic;html=1;rounded=0;fillColor=#1ba1e2;strokeColor=#006EAF;strokeWidth=3;" parent="1" edge="1">
          <mxGeometry width="50" height="50" relative="1" as="geometry">
            <mxPoint x="90" y="460" as="sourcePoint" />
            <mxPoint x="89.5" y="490" as="targetPoint" />
          </mxGeometry>
        </mxCell>
        <mxCell id="uwwBJBZ8vMVv8G7QtI5B-62" value="&lt;font style=&quot;font-size: 16px;&quot; face=&quot;Courier New&quot;&gt;BN&lt;br&gt;&lt;/font&gt;" style="rounded=1;whiteSpace=wrap;html=1;opacity=60;fillColor=#1ba1e2;fontColor=#ffffff;strokeColor=#006EAF;" parent="1" vertex="1">
          <mxGeometry x="350" y="80" width="120" height="30" as="geometry" />
        </mxCell>
        <mxCell id="uwwBJBZ8vMVv8G7QtI5B-63" value="" style="endArrow=classic;html=1;rounded=0;fillColor=#1ba1e2;strokeColor=#006EAF;strokeWidth=3;" parent="1" edge="1">
          <mxGeometry width="50" height="50" relative="1" as="geometry">
            <mxPoint x="410" y="50" as="sourcePoint" />
            <mxPoint x="409.5" y="80" as="targetPoint" />
          </mxGeometry>
        </mxCell>
        <mxCell id="uwwBJBZ8vMVv8G7QtI5B-64" value="&lt;font style=&quot;font-size: 16px;&quot; face=&quot;Courier New&quot;&gt;ReLU&lt;br&gt;&lt;/font&gt;" style="rounded=1;whiteSpace=wrap;html=1;opacity=60;fillColor=#1ba1e2;fontColor=#ffffff;strokeColor=#006EAF;" parent="1" vertex="1">
          <mxGeometry x="350" y="140" width="120" height="30" as="geometry" />
        </mxCell>
        <mxCell id="uwwBJBZ8vMVv8G7QtI5B-65" value="" style="endArrow=classic;html=1;rounded=0;fillColor=#1ba1e2;strokeColor=#006EAF;strokeWidth=3;" parent="1" edge="1">
          <mxGeometry width="50" height="50" relative="1" as="geometry">
            <mxPoint x="410" y="110" as="sourcePoint" />
            <mxPoint x="409.5" y="140" as="targetPoint" />
          </mxGeometry>
        </mxCell>
        <mxCell id="uwwBJBZ8vMVv8G7QtI5B-66" value="&lt;font style=&quot;font-size: 16px;&quot; face=&quot;Courier New&quot;&gt;CONV&lt;br&gt;&lt;/font&gt;" style="rounded=1;whiteSpace=wrap;html=1;opacity=60;fillColor=#1ba1e2;fontColor=#ffffff;strokeColor=#006EAF;" parent="1" vertex="1">
          <mxGeometry x="350" y="200" width="120" height="30" as="geometry" />
        </mxCell>
        <mxCell id="uwwBJBZ8vMVv8G7QtI5B-67" value="" style="endArrow=classic;html=1;rounded=0;fillColor=#1ba1e2;strokeColor=#006EAF;strokeWidth=3;" parent="1" edge="1">
          <mxGeometry width="50" height="50" relative="1" as="geometry">
            <mxPoint x="410" y="170" as="sourcePoint" />
            <mxPoint x="409.5" y="200" as="targetPoint" />
          </mxGeometry>
        </mxCell>
        <mxCell id="uwwBJBZ8vMVv8G7QtI5B-68" value="&lt;font style=&quot;font-size: 16px;&quot; face=&quot;Courier New&quot;&gt;BN&lt;br&gt;&lt;/font&gt;" style="rounded=1;whiteSpace=wrap;html=1;opacity=60;fillColor=#1ba1e2;fontColor=#ffffff;strokeColor=#006EAF;" parent="1" vertex="1">
          <mxGeometry x="350" y="260" width="120" height="30" as="geometry" />
        </mxCell>
        <mxCell id="uwwBJBZ8vMVv8G7QtI5B-69" value="" style="endArrow=classic;html=1;rounded=0;fillColor=#1ba1e2;strokeColor=#006EAF;strokeWidth=3;" parent="1" edge="1">
          <mxGeometry width="50" height="50" relative="1" as="geometry">
            <mxPoint x="410" y="230" as="sourcePoint" />
            <mxPoint x="409.5" y="260" as="targetPoint" />
          </mxGeometry>
        </mxCell>
        <mxCell id="uwwBJBZ8vMVv8G7QtI5B-70" value="&lt;font style=&quot;font-size: 16px;&quot; face=&quot;Courier New&quot;&gt;ReLU&lt;br&gt;&lt;/font&gt;" style="rounded=1;whiteSpace=wrap;html=1;opacity=60;fillColor=#1ba1e2;fontColor=#ffffff;strokeColor=#006EAF;" parent="1" vertex="1">
          <mxGeometry x="350" y="320" width="120" height="30" as="geometry" />
        </mxCell>
        <mxCell id="uwwBJBZ8vMVv8G7QtI5B-71" value="" style="endArrow=classic;html=1;rounded=0;fillColor=#1ba1e2;strokeColor=#006EAF;strokeWidth=3;" parent="1" edge="1">
          <mxGeometry width="50" height="50" relative="1" as="geometry">
            <mxPoint x="410" y="290" as="sourcePoint" />
            <mxPoint x="409.5" y="320" as="targetPoint" />
          </mxGeometry>
        </mxCell>
        <mxCell id="uwwBJBZ8vMVv8G7QtI5B-72" value="" style="endArrow=classic;html=1;rounded=0;fillColor=#1ba1e2;strokeColor=#006EAF;strokeWidth=3;" parent="1" edge="1">
          <mxGeometry width="50" height="50" relative="1" as="geometry">
            <mxPoint x="410" y="350" as="sourcePoint" />
            <mxPoint x="409.5" y="380" as="targetPoint" />
          </mxGeometry>
        </mxCell>
        <mxCell id="uwwBJBZ8vMVv8G7QtI5B-73" value="&lt;font style=&quot;font-size: 16px;&quot; face=&quot;Courier New&quot;&gt;x&lt;/font&gt;" style="text;html=1;strokeColor=none;fillColor=none;align=center;verticalAlign=middle;whiteSpace=wrap;rounded=0;fontColor=#FFFFFF;" parent="1" vertex="1">
          <mxGeometry x="380" y="20" width="60" height="30" as="geometry" />
        </mxCell>
        <mxCell id="uwwBJBZ8vMVv8G7QtI5B-75" value="&lt;font style=&quot;font-size: 16px;&quot; face=&quot;Courier New&quot;&gt;+&lt;/font&gt;" style="ellipse;whiteSpace=wrap;html=1;aspect=fixed;fillColor=#1ba1e2;fontColor=#ffffff;strokeColor=#006EAF;opacity=60;" parent="1" vertex="1">
          <mxGeometry x="400" y="440" width="20" height="20" as="geometry" />
        </mxCell>
        <mxCell id="uwwBJBZ8vMVv8G7QtI5B-77" value="" style="endArrow=classic;html=1;rounded=0;fillColor=#1ba1e2;strokeColor=#006EAF;strokeWidth=3;" parent="1" edge="1">
          <mxGeometry width="50" height="50" relative="1" as="geometry">
            <mxPoint x="410" y="460" as="sourcePoint" />
            <mxPoint x="409.5" y="490" as="targetPoint" />
          </mxGeometry>
        </mxCell>
        <mxCell id="uwwBJBZ8vMVv8G7QtI5B-82" value="&lt;font style=&quot;font-size: 16px;&quot; face=&quot;Courier New&quot;&gt;CONV&lt;br&gt;&lt;/font&gt;" style="rounded=1;whiteSpace=wrap;html=1;opacity=60;fillColor=#1ba1e2;fontColor=#ffffff;strokeColor=#006EAF;" parent="1" vertex="1">
          <mxGeometry x="350" y="380" width="120" height="30" as="geometry" />
        </mxCell>
        <mxCell id="uwwBJBZ8vMVv8G7QtI5B-83" value="" style="endArrow=classic;html=1;rounded=0;fillColor=#1ba1e2;strokeColor=#006EAF;strokeWidth=3;" parent="1" edge="1">
          <mxGeometry width="50" height="50" relative="1" as="geometry">
            <mxPoint x="410" y="410" as="sourcePoint" />
            <mxPoint x="409.5" y="440" as="targetPoint" />
          </mxGeometry>
        </mxCell>
        <mxCell id="Fe9B90bi8XebrmfIsih8-1" value="" style="endArrow=classic;html=1;rounded=0;fillColor=#1ba1e2;strokeColor=#006EAF;strokeWidth=3;entryX=1;entryY=0.5;entryDx=0;entryDy=0;" edge="1" parent="1" target="uwwBJBZ8vMVv8G7QtI5B-56">
          <mxGeometry width="50" height="50" relative="1" as="geometry">
            <mxPoint x="90" y="60" as="sourcePoint" />
            <mxPoint x="240" y="190" as="targetPoint" />
            <Array as="points">
              <mxPoint x="200" y="60" />
              <mxPoint x="200" y="390" />
            </Array>
          </mxGeometry>
        </mxCell>
        <mxCell id="Fe9B90bi8XebrmfIsih8-2" value="" style="endArrow=classic;html=1;rounded=0;fillColor=#1ba1e2;strokeColor=#006EAF;strokeWidth=3;entryX=1;entryY=0.5;entryDx=0;entryDy=0;" edge="1" parent="1" target="uwwBJBZ8vMVv8G7QtI5B-75">
          <mxGeometry width="50" height="50" relative="1" as="geometry">
            <mxPoint x="410" y="60" as="sourcePoint" />
            <mxPoint x="420" y="390" as="targetPoint" />
            <Array as="points">
              <mxPoint x="520" y="60" />
              <mxPoint x="520" y="450" />
            </Array>
          </mxGeometry>
        </mxCell>
      </root>
    </mxGraphModel>
  </diagram>
</mxfile>
